<svg version="1.0" xmlns="http://www.w3.org/2000/svg" width="1365.333" height="1365.333" viewBox="0 0 1024 1024"><path d="M239.5 123c-31.9 9.6-54.8 36.5-61.4 72-.7 3.6-1.2 104.1-1.5 297.4-.4 287.6-.4 292 1.6 299 5.8 20.9 15.6 36.5 30.2 48.2 7.2 5.7 25.5 15.5 33.5 18 3.9 1.2 46.2 1.4 267.3 1.4h262.6l5.9-2.1c9.8-3.5 18.5-7.9 24-12 15.2-11.4 27.3-28.3 33.9-47.3 5.6-16.3 5.3-.4 5.3-267.1l.1-247-3-5.2c-4.4-7.7-15.6-16.4-25.2-19.6-1.7-.6-1.8-3.1-1.8-33.4 0-19.5-.5-34.6-1.1-37.3-.6-2.5-1.2-5.2-1.4-6-1.8-7.8-6.9-18.7-12.7-27.3-5.5-8.2-9.3-12.2-16.8-18.1-8.7-6.9-14.2-10-23.1-13l-7.4-2.5H497c-240.2 0-251.8.1-257.5 1.9zm505 24c15 5.2 28.1 16 34.8 28.7 5.4 10.4 6.7 15.4 6.7 26.6v9.8l-3.2-2.3c-2-1.4-4.7-2.3-6.9-2.3-3.5 0-3.8-.2-5-4-3.1-10.2-13.6-21.6-24.9-26.9l-6.5-3.1-240.7-.3-240.7-.2-5.6 2.1c-13.9 5.2-25.6 18.7-31.6 36.5l-3.4 9.9v36c0 32.2-.2 36.3-1.8 39-1.5 2.6-1.7 6.1-1.7 27.2V348h-13v-67.3c0-38.5.5-70.2 1-74.2 1.6-11.6 6.6-25.5 12.1-33.8 8.1-12.3 17.6-19.8 32.3-25.3l6.1-2.3h243.1c240.5-.1 243.1-.1 248.9 1.9zm-7.7 37.9c8.3 3.1 18.2 12.2 22.6 20.8l1.6 3.3-236.7.2-236.8.3-7.5 3.7c-15.9 7.8-27.8 23.1-30.5 39-.4 2.4-1.1 3.8-2.1 3.8-.8 0-2.8.7-4.4 1.5l-3 1.6v-11.8c.1-30.2 13.2-51.9 37.3-61.4l7.2-2.8L508 183c218.8 0 223.6 0 228.8 1.9zM774 233c6.5 3.3 9.8 7.7 10.6 13.8.6 4.6.4 5.7-1.3 7.4-2 1.9-4.5 1.9-255.6 2-139.6 0-253.8-.1-253.9-.3-.6-1.6 3.2-8.7 7-13 5.1-5.7 10.2-9.3 15.3-10.8 2.2-.6 90.4-1 238.7-1 233-.1 235.3-.1 239.2 1.9zm29 47.9c2.5 1.3 6.5 4.2 9 6.3l4.5 4 .5 13.8.5 13.8-6-5.6c-3.3-3-8-6.5-10.5-7.6l-4.5-2.1-262.9-.3-263-.2-6.4 2.1c-4.9 1.6-7.8 3.4-11.9 7.4-3 2.8-7 5.7-8.9 6.3l-3.6 1.1.4-9.8c.3-9.4.5-10 4-15.4 2.1-3.1 6.1-7.4 9-9.6 10.4-7.7-16.1-7 279.8-6.8l265.5.2 4.5 2.4zm-8.8 34.3c5.5 1.6 12.8 8.5 16.7 15.7 6.3 11.9 6 1.3 6 230.3 0 204.4-.1 208.4-2 218.3-3.2 15.7-8 24.9-18.6 35.4-9.4 9.3-17.7 14.4-28.8 17.7-5.7 1.7-18.9 1.8-259 1.8-238.6.1-253.4 0-259.4-1.7-16.6-4.5-33.3-18.1-40.3-32.7-2-4.1-3.9-8.4-4.3-9.5-2.9-8.1-3-15.9-2.7-216.3l.2-203.4 18.5.4c15.7.2 18.7.1 19.5-1.2.5-.8 1-6.7 1-13.1 0-14.5.5-15.2 11.8-15.9l7.7-.5 3.6-7.3c4.3-8.7 8.6-13.4 15.3-16.7l5-2.5h252.9c192.5 0 253.9.3 256.9 1.2z"/><path d="M305.1 394.3c-4.8 1.5-9.7 6.6-11 11.2-.8 2.9-1.1 54.7-1.1 181 0 175.1 0 177.1 2 180.8 1.1 2 2 4.5 2 5.5 0 2 3.1 5.4 4.6 5.1.5 0 1.9.2 3.1.6 2 .7 2.1.8.6 2.3-1 1.1-1.2 1.7-.4 2 .6.2.8.9.5 1.4-.4.7-.2.8.4.4.6-.4.8-1.4.5-2.4-.6-1.5-.5-1.6 1.3-.2 4.2 3.3 4.7 4.1 3.5 5.3-.6.6-1.1 1.6-1.1 2.2 0 .5.5.3 1-.5.8-1.2 1-1 1.1 1 .1 1.4.1 3.3 0 4.3-.2 1.5.7 1.7 6.1 1.7 3.5 0 43.7 0 89.3.1 45.7.1 108.4.2 139.5.2 31.1 0 62.8.1 70.5.1 42.3.2 86.5-.6 85.9-1.6-.4-.7 0-.7 1.3 0 1.5.8 2.2.6 3.2-1 .7-1.1 1.9-1.7 2.6-1.4 1.9.7 3-1.3 1.6-2.7-.8-.8-1.1-.7-1.1.3 0 1.1-.3 1.1-1.2.2-1.5-1.5-2-4.9-.8-5.7.5-.3.7-1.1.4-1.9-.3-.7.2-1.3 1-1.3s1.2.6.9 1.4c-.6 1.6.9 1.7 2.5.1.9-.9 1.2-.8 1.2.5 0 .9-.6 1.7-1.2 1.7-.9 0-.8.4.2 1 .8.5 1 1 .5 1-.6 0-1.6-.5-2.3-1.2-1.3-1.3-1.6 0-.4 1.9.8 1.2 2.6 2.1 2.8 1.3.3-2.1 2.7-4.9 3.7-4.4.7.4.2-.4-1.1-1.8-2.3-2.5-2.3-2.5-.2-3.1 1.1-.3 1.9-1.1 1.8-1.9-.2-.7.3-1.2 1.1-1 1.2.3 1.2 0 .1-1.2-1-1.4-1-1.6.6-1.6s1.7-.2.4-1c-.8-.5-1-1-.5-1 1 0 1.2-80.2.7-288.1l-.2-79.6-2.3-3.4c-1.2-1.9-4.1-4.3-6.4-5.5l-4.1-2.1-199.9-.1c-142.5 0-200.8.3-203.2 1.1zM374 582.4v178.5l-2.2 2.6-2.3 2.5-29.6.1c-16.2 0-30.2-.3-31-.6-4-1.5-4 2.7-3.9-180.7V408.6l2.2-2.3 2.1-2.3H374v178.4zm292-175.7c2 2.6 2.1 3.7 1.8 17.9-.3 13.3-.5 15.5-2.2 17.3l-1.9 2.1H421.1l-2.1-2.2c-1.8-2-2-3.5-2-17.7 0-14.5.1-15.6 2.2-17.8l2.1-2.3h242.6l2.1 2.7zm42.2-1.5c1.2 1 1.7 3.9 2 11.8.3 5.9.2 9.2-.2 7.5-.5-1.9-.8.9-.7 7.6.2 7.6-.2 11-1.1 11.9-1.3 1.1-6.9.9-9.1-.4-1.2-.8-1.6-37.7-.4-38.9 1.1-1.2 7.8-.8 9.5.5zm-302.8 1.4c.9 2.3.7 34.7-.2 36.1-.9 1.4-17.6 2.3-18.9 1-.4-.5-.9-9.4-1.1-19.8l-.3-18.9h9.9c8.2 0 10.1.3 10.6 1.6zm305.3 24.6c-.3.8-.6.5-.6-.6-.1-1.1.2-1.7.5-1.3.3.3.4 1.2.1 1.9zm0 6.5c-.3 1-.5.2-.5-1.7s.2-2.7.5-1.8c.2 1 .2 2.6 0 3.5zM403.5 457l2.5 2.3V709h-21V583.7c0-118.2.1-125.5 1.8-126.9 2.6-2.4 4.3-2.8 9.5-2.4 3.3.2 5.5 1 7.2 2.6zm261.1.4 3.4 3.4-.3 150.7-.2 150.7-2.8 2.4-2.8 2.4h-240l-2.4-2.5-2.5-2.4V459.6l2.7-2.8 2.7-2.8h238.8l3.4 3.4zM405.8 741c-.4 25-.3 25-10.5 25-10.4 0-10.3.2-10.3-25v-21.1l10.6.2 10.5.1-.3 20.8zm305-.5.3 20.5-2.5 2.5c-2.7 2.7-5.5 3.1-8.7 1.5-1.8-1-1.9-2.3-1.9-23v-22h12.5l.3 20.5zm7.2 33.6c-1.3 2.3-2.2 2.5-1.3.2.5-1.2.3-1.4-.8-.8-1.2.8-1.2.6 0-.8 1.8-2.2 3.4-1.1 2.1 1.4zm-329.2 3.6c-14.2.2-37.4.2-51.5 0-14.2-.1-2.6-.2 25.7-.2s39.9.1 25.8.2zm297.5 0c-.7.2-2.1.2-3 0-1-.3-.4-.5 1.2-.5 1.7 0 2.4.2 1.8.5zm9.5 0c-1 .2-2.6.2-3.5 0-1-.3-.2-.5 1.7-.5s2.7.2 1.8.5z"/><path d="M320.8 417.6c-2.2.7-3.5 5.1-2.1 7.3.9 1.4 3.9 1.6 19.8 1.9 12.1.1 19.2-.1 19.9-.8 1.4-1.4 1.5-7.6.2-7.7-9.9-.6-36.5-1.1-37.8-.7zM320.6 434.5c-2.5 1.2-3.2 4.6-1.6 7.4 1 2 1.9 2.1 20.1 2.1H358l1.2-2.5c.8-1.9.8-3.1 0-5l-1.1-2.4-17.7-.3c-10.8-.2-18.6.1-19.8.7zM319.6 533.6c-1.9 1.8-2.1 6.5-.4 8.2.8.8 6.6 1.2 19.3 1.2 19.5 0 20.5-.3 20.5-5.1 0-5.5-1.5-5.9-20.5-5.9-14.4 0-17.6.3-18.9 1.6zM319.2 712.2c-1.7 1.7-1.5 6.3.3 7.8 1.4 1.2 34.9 1.6 38 .4 2.3-.9 2.8-4.3 1.1-6.9L357 711h-18.3c-12.9 0-18.7.4-19.5 1.2zM320.3 729.5c-2.7 1.9-3 5.7-.6 7.6 2.2 1.9 36.6 1.7 38.8-.1 1.9-1.5 1.9-5.4.2-6.9-.9-.6-8.3-1.3-18.8-1.6-14.8-.5-17.7-.3-19.6 1zM319.2 747.2c-1.6 1.6-1.5 6.3.2 7.7.9.8 7.1 1.1 20.2.9l18.8-.3 1-3.2c1.7-6 .7-6.3-20.3-6.3-13.2 0-19.1.4-19.9 1.2zM557 501.7v9.3h-19.4c-17.6 0-19.8.2-24.7 2.2-9.7 3.9-15.6 8.4-21 15.8-3.2 4.3-5.9 7-7 7-1.8 0-2.3 1.2-3.1 6.5-.3 1.7-1.3 2.1-7.1 2.5-4.5.3-7.1 1-7.7 2-1.5 2.3-1.3 30.3.2 31.8.7.7 3.9 1.2 7.3 1.3h6l3.2 6.7c1.8 3.7 4.8 8.3 6.7 10.3 4.7 5.1 13.4 10.5 17.9 11.3l3.7.7v6.4c0 5.5-.3 6.5-1.7 6.6-1 0-10.3 0-20.6-.1-16.7-.2-19.1 0-20.8 1.6-1.8 1.6-1.9 3.6-1.9 49.6 0 31.1.4 48.6 1 49.9 1 1.9 2.9 1.9 72.4 1.9 67.8 0 71.4-.1 72.9-1.8s1.7-6.6 1.7-49.9c0-45.2-.1-48.1-1.8-49.6-1.6-1.5-4.8-1.7-23.5-1.7H568v-12.8l4.4-1.1c8-2 20.8-16 23.1-25.4.7-2.7.8-2.7 8.6-2.7 10.7 0 10.9-.3 10.9-18.2 0-17.2-.4-17.8-11-17.8h-7v-5.1c0-5.1 0-5.1-2.8-4.6-2.6.5-3.4-.1-8.5-6.3-3.5-4.3-8.2-8.6-12.2-11.1l-6.5-4.2v-20.6l-5 .2-5 .2v9.2zm9.5 24.2c13.8 7.9 21.2 23.1 20.3 41.6-.5 10.3-2.6 15.7-8.9 22.8-6.7 7.6-7 7.7-38.9 7.7-31.8 0-32.4-.1-38.6-7.4-2-2.2-4.7-6.6-6.2-9.6-2.4-4.9-2.6-6.7-2.6-16.5 0-12.5 1.7-18.3 7.9-26.7 3.9-5.3 13.2-13.1 14.6-12.2.5.3.9.1.9-.5 0-1.5 3-1.7 25.5-1.9l21-.2 5 2.9zm36.7 33.1-.6 4.5-.7-3.4c-.4-2.1-.3-3.9.4-4.6 1.6-1.8 1.7-1.6.9 3.5zM558 616v6h-36v-12h36v6zm15 64v16l-32.7-.2-32.8-.3-.3-15.8-.3-15.7H573v16zm-56.7 26.7c-2.9.2-7.8.2-11 0s-.8-.3 5.2-.3c6.1 0 8.7.1 5.8.3zm13 0c-.7.2-1.9.2-2.5 0-.7-.3-.2-.5 1.2-.5s1.9.2 1.3.5zm39.5 0c-6 .2-15.6.2-21.5 0-6-.1-1.1-.3 10.7-.3 11.8 0 16.7.2 10.8.3z"/><path d="M508.9 558.9c-3.2 3.3-3.7 6.7-1.4 11 3.9 7.7 15.5 3.7 15.5-5.2 0-3.7-.6-4.7-4-7-3.6-2.5-6.8-2.1-10.1 1.2zM556.9 558.9c-3.5 3.5-3.7 7.2-.9 11.8 1.7 2.8 2.5 3.3 5.9 3.3 3.2 0 4.4-.6 6.5-3.1 3.5-4.1 3.4-8.3-.3-12-1.8-1.7-4-2.9-5.6-2.9-1.6 0-3.8 1.2-5.6 2.9zM531.6 577.6c-2.4 6.3.9 10.4 8.6 10.4 5.5 0 6.8-1.5 6.8-7.9V576h-7.4c-5.8 0-7.5.3-8 1.6zM709.2 755.5c0 1.6.2 2.2.5 1.2.2-.9.2-2.3 0-3-.3-.6-.5.1-.5 1.8zM301.7 779.9c-.3 1.4-.1 1.8.9 1.4 1.6-.6 1.8-1.9.5-2.7-.5-.3-1.1.3-1.4 1.3zM709.5 785c-.3.5-.2 1.8.4 2.7.7 1.4.9 1.2.8-1-.2-3-.3-3.1-1.2-1.7zM308.7 792.4c-.4 1-.1 1.3.8.9.8-.3 1.2-.9.9-1.4-.7-1.2-1.1-1.1-1.7.5z"/></svg>