<?xml version="1.0" standalone="no"?>
<!DOCTYPE svg PUBLIC "-//W3C//DTD SVG 20010904//EN"
 "http://www.w3.org/TR/2001/REC-SVG-20010904/DTD/svg10.dtd">
<svg version="1.0" xmlns="http://www.w3.org/2000/svg"
 width="1024.000000pt" height="1024.000000pt" viewBox="0 0 1024.000000 1024.000000"
 preserveAspectRatio="xMidYMid meet">
<metadata>
Created by potrace 1.14, written by Peter Selinger 2001-2017
</metadata>
<g transform="translate(0.000000,1024.000000) scale(0.100000,-0.100000)"
fill="#000000" stroke="none">
<path d="M2395 9010 c-319 -96 -548 -365 -614 -720 -7 -36 -12 -1041 -15
-2974 -4 -2876 -4 -2920 16 -2990 58 -209 156 -365 302 -482 72 -57 255 -155
335 -180 39 -12 462 -14 2673 -14 l2626 0 59 21 c98 35 185 79 240 120 152
114 273 283 339 473 56 163 53 4 53 2671 l1 2470 -30 52 c-44 77 -156 164
-252 196 -17 6 -18 31 -18 334 0 195 -5 346 -11 373 -6 25 -12 52 -14 60 -18
78 -69 187 -127 273 -55 82 -93 122 -168 181 -87 69 -142 100 -231 130 l-74
25 -2515 0 c-2402 0 -2518 -1 -2575 -19z m5050 -240 c150 -52 281 -160 348
-287 54 -104 67 -154 67 -266 l0 -98 -32 23 c-20 14 -47 23 -69 23 -35 0 -38
2 -50 40 -31 102 -136 216 -249 269 l-65 31 -2407 3 -2407 2 -56 -21 c-139
-52 -256 -187 -316 -365 l-34 -99 0 -360 c0 -322 -2 -363 -18 -390 -15 -26
-17 -61 -17 -272 l0 -243 -65 0 -65 0 0 673 c0 385 5 702 10 742 16 116 66
255 121 338 81 123 176 198 323 253 l61 23 2431 0 c2405 1 2431 1 2489 -19z
m-77 -379 c83 -31 182 -122 226 -208 l16 -33 -2367 -2 -2368 -3 -75 -37 c-159
-78 -278 -231 -305 -390 -4 -24 -11 -38 -21 -38 -8 0 -28 -7 -44 -15 l-30 -16
0 118 c1 302 132 519 373 614 l72 28 2235 1 c2188 0 2236 0 2288 -19z m372
-481 c65 -33 98 -77 106 -138 6 -46 4 -57 -13 -74 -20 -19 -45 -19 -2556 -20
-1396 0 -2538 1 -2539 3 -6 16 32 87 70 130 51 57 102 93 153 108 22 6 904 10
2387 10 2330 1 2353 1 2392 -19z m290 -479 c25 -13 65 -42 90 -63 l45 -40 5
-138 5 -138 -60 56 c-33 30 -80 65 -105 76 l-45 21 -2629 3 -2630 2 -64 -21
c-49 -16 -78 -34 -119 -74 -30 -28 -70 -57 -89 -63 l-36 -11 4 98 c3 94 5 100
40 154 21 31 61 74 90 96 104 77 -161 70 2798 68 l2655 -2 45 -24z m-88 -343
c55 -16 128 -85 167 -157 63 -119 60 -13 60 -2303 0 -2044 -1 -2084 -20 -2183
-32 -157 -80 -249 -186 -354 -94 -93 -177 -144 -288 -177 -57 -17 -189 -18
-2590 -18 -2386 -1 -2534 0 -2594 17 -166 45 -333 181 -403 327 -20 41 -39 84
-43 95 -29 81 -30 159 -27 2163 l2 2034 185 -4 c157 -2 187 -1 195 12 5 8 10
67 10 131 0 145 5 152 118 159 l77 5 36 73 c43 87 86 134 153 167 l50 25 2529
0 c1925 0 2539 -3 2569 -12z"/>
<path d="M3051 6297 c-48 -15 -97 -66 -110 -112 -8 -29 -11 -547 -11 -1810 0
-1751 0 -1771 20 -1808 11 -20 20 -45 20 -55 0 -20 31 -54 46 -51 5 0 19 -2
31 -6 20 -7 21 -8 6 -23 -10 -11 -12 -17 -4 -20 6 -2 8 -9 5 -14 -4 -7 -2 -8
4 -4 6 4 8 14 5 24 -6 15 -5 16 13 2 42 -33 47 -41 35 -53 -6 -6 -11 -16 -11
-22 0 -5 5 -3 10 5 8 12 10 10 11 -10 1 -14 1 -33 0 -43 -2 -15 7 -17 61 -17
35 0 437 0 893 -1 457 -1 1084 -2 1395 -2 311 0 628 -1 705 -1 423 -2 865 6
859 16 -4 7 0 7 13 0 15 -8 22 -6 32 10 7 11 19 17 26 14 19 -7 30 13 16 27
-8 8 -11 7 -11 -3 0 -11 -3 -11 -12 -2 -15 15 -20 49 -8 57 5 3 7 11 4 19 -3
7 2 13 10 13 8 0 12 -6 9 -14 -6 -16 9 -17 25 -1 9 9 12 8 12 -5 0 -9 -6 -17
-12 -17 -9 0 -8 -4 2 -10 8 -5 10 -10 5 -10 -6 0 -16 5 -23 12 -13 13 -16 0
-4 -19 8 -12 26 -21 28 -13 3 21 27 49 37 44 7 -4 2 4 -11 18 -23 25 -23 25
-2 31 11 3 19 11 18 19 -2 7 3 12 11 10 12 -3 12 0 1 12 -10 14 -10 16 6 16
16 0 17 2 4 10 -8 5 -10 10 -5 10 10 0 12 802 7 2881 l-2 796 -23 34 c-12 19
-41 43 -64 55 l-41 21 -1999 1 c-1425 0 -2008 -3 -2032 -11z m689 -1881 l0
-1785 -22 -26 -23 -25 -296 -1 c-162 0 -302 3 -310 6 -40 15 -40 -27 -39 1807
l0 1762 22 23 21 23 324 0 323 0 0 -1784z m2920 1757 c20 -26 21 -37 18 -179
-3 -133 -5 -155 -22 -173 l-19 -21 -1213 0 -1213 0 -21 22 c-18 20 -20 35 -20
177 0 145 1 156 22 178 l21 23 1213 0 1213 0 21 -27z m422 15 c12 -10 17 -39
20 -118 3 -59 2 -92 -2 -75 -5 19 -8 -9 -7 -76 2 -76 -2 -110 -11 -119 -13
-11 -69 -9 -91 4 -12 8 -16 377 -4 389 11 12 78 8 95 -5z m-3028 -14 c9 -23 7
-347 -2 -361 -9 -14 -176 -23 -189 -10 -4 5 -9 94 -11 198 l-3 189 99 0 c82 0
101 -3 106 -16z m3053 -246 c-3 -8 -6 -5 -6 6 -1 11 2 17 5 13 3 -3 4 -12 1
-19z m0 -65 c-3 -10 -5 -2 -5 17 0 19 2 27 5 18 2 -10 2 -26 0 -35z m-3072
-193 l25 -23 0 -1249 0 -1248 -105 0 -105 0 0 1253 c0 1182 1 1255 18 1269 26
24 43 28 95 24 33 -2 55 -10 72 -26z m2611 -4 l34 -34 -3 -1507 -2 -1507 -28
-24 -28 -24 -1200 0 -1200 0 -24 25 -25 24 0 1512 0 1513 27 28 27 28 1194 0
1194 0 34 -34z m-2588 -2836 c-4 -250 -3 -250 -105 -250 -104 0 -103 -2 -103
250 l0 211 106 -2 105 -1 -3 -208z m3050 5 l3 -205 -25 -25 c-27 -27 -55 -31
-87 -15 -18 10 -19 23 -19 230 l0 220 63 0 62 0 3 -205z m72 -336 c-13 -23
-22 -25 -13 -2 5 12 3 14 -8 8 -12 -8 -12 -6 0 8 18 22 34 11 21 -14z m-3292
-36 c-142 -2 -374 -2 -515 0 -142 1 -26 2 257 2 283 0 399 -1 258 -2z m2975 0
c-7 -2 -21 -2 -30 0 -10 3 -4 5 12 5 17 0 24 -2 18 -5z m95 0 c-10 -2 -26 -2
-35 0 -10 3 -2 5 17 5 19 0 27 -2 18 -5z"/>
<path d="M3208 6064 c-22 -7 -35 -51 -21 -73 9 -14 39 -16 198 -19 121 -1 192
1 199 8 14 14 15 76 2 77 -99 6 -365 11 -378 7z"/>
<path d="M3206 5895 c-25 -12 -32 -46 -16 -74 10 -20 19 -21 201 -21 l189 0
12 25 c8 19 8 31 0 50 l-11 24 -177 3 c-108 2 -186 -1 -198 -7z"/>
<path d="M3196 4904 c-19 -18 -21 -65 -4 -82 8 -8 66 -12 193 -12 195 0 205 3
205 51 0 55 -15 59 -205 59 -144 0 -176 -3 -189 -16z"/>
<path d="M3192 3118 c-17 -17 -15 -63 3 -78 14 -12 349 -16 380 -4 23 9 28 43
11 69 l-16 25 -183 0 c-129 0 -187 -4 -195 -12z"/>
<path d="M3203 2945 c-27 -19 -30 -57 -6 -76 22 -19 366 -17 388 1 19 15 19
54 2 69 -9 6 -83 13 -188 16 -148 5 -177 3 -196 -10z"/>
<path d="M3192 2768 c-16 -16 -15 -63 2 -77 9 -8 71 -11 202 -9 l188 3 10 32
c17 60 7 63 -203 63 -132 0 -191 -4 -199 -12z"/>
<path d="M5570 5223 l0 -93 -194 0 c-176 0 -198 -2 -247 -22 -97 -39 -156 -84
-210 -158 -32 -43 -59 -70 -70 -70 -18 0 -23 -12 -31 -65 -3 -17 -13 -21 -71
-25 -45 -3 -71 -10 -77 -20 -15 -23 -13 -303 2 -318 7 -7 39 -12 73 -13 l60 0
32 -67 c18 -37 48 -83 67 -103 47 -51 134 -105 179 -113 l37 -7 0 -64 c0 -55
-3 -65 -17 -66 -10 0 -103 0 -206 1 -167 2 -191 0 -208 -16 -18 -16 -19 -36
-19 -496 0 -311 4 -486 10 -499 10 -19 29 -19 724 -19 678 0 714 1 729 18 15
17 17 66 17 499 0 452 -1 481 -18 496 -16 15 -48 17 -235 17 l-217 0 0 64 0
64 44 11 c80 20 208 160 231 254 7 27 8 27 86 27 107 0 109 3 109 182 0 172
-4 178 -110 178 l-70 0 0 51 c0 51 0 51 -28 46 -26 -5 -34 1 -85 63 -35 43
-82 86 -122 111 l-65 42 0 103 0 103 -50 -2 -50 -2 0 -92z m95 -242 c138 -79
212 -231 203 -416 -5 -103 -26 -157 -89 -228 -67 -76 -70 -77 -389 -77 -318 0
-324 1 -386 74 -20 22 -47 66 -62 96 -24 49 -26 67 -26 165 0 125 17 183 79
267 39 53 132 131 146 122 5 -3 9 -1 9 5 0 15 30 17 255 19 l210 2 50 -29z
m367 -331 l-6 -45 -7 34 c-4 21 -3 39 4 46 16 18 17 16 9 -35z m-452 -570 l0
-60 -180 0 -180 0 0 60 0 60 180 0 180 0 0 -60z m150 -640 l0 -160 -327 2
-328 3 -3 158 -3 157 331 0 330 0 0 -160z m-567 -267 c-29 -2 -78 -2 -110 0
-32 2 -8 3 52 3 61 0 87 -1 58 -3z m130 0 c-7 -2 -19 -2 -25 0 -7 3 -2 5 12 5
14 0 19 -2 13 -5z m395 0 c-60 -2 -156 -2 -215 0 -60 1 -11 3 107 3 118 0 167
-2 108 -3z"/>
<path d="M5089 4651 c-32 -33 -37 -67 -14 -110 39 -77 155 -37 155 52 0 37 -6
47 -40 70 -36 25 -68 21 -101 -12z"/>
<path d="M5569 4651 c-35 -35 -37 -72 -9 -118 17 -28 25 -33 59 -33 32 0 44 6
65 31 35 41 34 83 -3 120 -18 17 -40 29 -56 29 -16 0 -38 -12 -56 -29z"/>
<path d="M5316 4464 c-24 -63 9 -104 86 -104 55 0 68 15 68 79 l0 41 -74 0
c-58 0 -75 -3 -80 -16z"/>
<path d="M7092 2685 c0 -16 2 -22 5 -12 2 9 2 23 0 30 -3 6 -5 -1 -5 -18z"/>
<path d="M3017 2441 c-3 -14 -1 -18 9 -14 16 6 18 19 5 27 -5 3 -11 -3 -14
-13z"/>
<path d="M7095 2390 c-3 -5 -2 -18 4 -27 7 -14 9 -12 8 10 -2 30 -3 31 -12 17z"/>
<path d="M3087 2316 c-4 -10 -1 -13 8 -9 8 3 12 9 9 14 -7 12 -11 11 -17 -5z"/>
</g>
</svg>
